<svg id="snow" width="177" height="160" viewBox="0 0 177 160" fill="none" xmlns="http://www.w3.org/2000/svg">
<path d="M151.658 107.853C166.194 104.152 176.945 90.975 176.945 75.2868C176.945 56.8284 162.062 41.8461 143.642 41.6855C141.903 18.3735 122.438 0 98.681 0C81.4593 0 66.4928 9.65552 58.8996 23.8484C38.7342 24.6254 22.5689 41.0006 22.1274 61.2503H21.7301C9.72891 61.2503 0 70.9792 0 82.9804V87.1593C0 99.1605 9.7289 108.889 21.7301 108.889H145.007C147.327 108.889 149.562 108.526 151.658 107.853Z" fill="url(#paint0_linear)"/>
<path fill-rule="evenodd" clip-rule="evenodd" d="M42.0317 134.474C42.9714 134.474 43.7331 133.713 43.7331 132.773V130.212L45.7952 132.275C46.4597 132.939 47.5369 132.939 48.2014 132.275C48.8658 131.61 48.8658 130.533 48.2014 129.868L46.0016 127.669H48.8373C49.7769 127.669 50.5387 126.907 50.5387 125.967C50.5387 125.028 49.7769 124.266 48.8373 124.266H46.2768L48.339 122.204C49.0034 121.539 49.0034 120.462 48.339 119.798C47.6745 119.133 46.5973 119.133 45.9328 119.798L43.7331 121.997V118.531C43.7331 117.591 42.9714 116.829 42.0317 116.829C41.0921 116.829 40.3303 117.591 40.3303 118.531V121.997L38.1306 119.798C37.4661 119.133 36.3889 119.133 35.7244 119.798C35.06 120.462 35.06 121.539 35.7244 122.204L37.7866 124.266H34.5951C33.6554 124.266 32.8937 125.028 32.8937 125.967C32.8937 126.907 33.6554 127.669 34.5951 127.669H38.0618L35.8621 129.868C35.1976 130.533 35.1976 131.61 35.8621 132.275C36.5265 132.939 37.6038 132.939 38.2682 132.275L40.3303 130.212V132.773C40.3303 133.713 41.0921 134.474 42.0317 134.474Z" fill="white"/>
<path fill-rule="evenodd" clip-rule="evenodd" d="M64.717 152.622C65.6567 152.622 66.4184 151.861 66.4184 150.921V148.361L68.4805 150.423C69.145 151.087 70.2222 151.087 70.8867 150.423C71.5511 149.758 71.5511 148.681 70.8867 148.017L68.6869 145.817H71.5226C72.4623 145.817 73.224 145.055 73.224 144.116C73.224 143.176 72.4623 142.414 71.5226 142.414H68.9622L71.0243 140.352C71.6887 139.688 71.6887 138.61 71.0243 137.946C70.3598 137.281 69.2826 137.281 68.6181 137.946L66.4184 140.146V136.679C66.4184 135.739 65.6567 134.977 64.717 134.977C63.7774 134.977 63.0156 135.739 63.0156 136.679V140.146L60.8159 137.946C60.1514 137.281 59.0742 137.281 58.4097 137.946C57.7453 138.61 57.7453 139.688 58.4097 140.352L60.4719 142.414H57.2804C56.3407 142.414 55.579 143.176 55.579 144.116C55.579 145.055 56.3407 145.817 57.2804 145.817H60.7471L58.5474 148.017C57.8829 148.681 57.8829 149.758 58.5474 150.423C59.2118 151.087 60.2891 151.087 60.9535 150.423L63.0156 148.361V150.921C63.0156 151.861 63.7774 152.622 64.717 152.622Z" fill="white"/>
<path fill-rule="evenodd" clip-rule="evenodd" d="M132.773 134.474C133.713 134.474 134.474 133.713 134.474 132.773V130.212L136.536 132.275C137.201 132.939 138.278 132.939 138.943 132.275C139.607 131.61 139.607 130.533 138.943 129.868L136.743 127.669H139.579C140.518 127.669 141.28 126.907 141.28 125.967C141.28 125.028 140.518 124.266 139.579 124.266H137.018L139.08 122.204C139.745 121.539 139.745 120.462 139.08 119.798C138.416 119.133 137.338 119.133 136.674 119.798L134.474 121.997V118.531C134.474 117.591 133.713 116.829 132.773 116.829C131.833 116.829 131.072 117.591 131.072 118.531V121.997L128.872 119.798C128.207 119.133 127.13 119.133 126.466 119.798C125.801 120.462 125.801 121.539 126.466 122.204L128.528 124.266H125.336C124.397 124.266 123.635 125.028 123.635 125.967C123.635 126.907 124.397 127.669 125.336 127.669H128.803L126.603 129.868C125.939 130.533 125.939 131.61 126.603 132.275C127.268 132.939 128.345 132.939 129.009 132.275L131.072 130.212V132.773C131.072 133.713 131.833 134.474 132.773 134.474Z" fill="white"/>
<path fill-rule="evenodd" clip-rule="evenodd" d="M87.4023 134.474C88.342 134.474 89.1037 133.713 89.1037 132.773V130.212L91.1658 132.275C91.8303 132.939 92.9075 132.939 93.572 132.275C94.2364 131.61 94.2364 130.533 93.572 129.868L91.3722 127.669H94.2079C95.1476 127.669 95.9093 126.907 95.9093 125.967C95.9093 125.028 95.1476 124.266 94.2079 124.266H91.6474L93.7096 122.204C94.374 121.539 94.374 120.462 93.7096 119.798C93.0451 119.133 91.9679 119.133 91.3034 119.798L89.1037 121.997V118.531C89.1037 117.591 88.342 116.829 87.4023 116.829C86.4626 116.829 85.7009 117.591 85.7009 118.531V121.997L83.5012 119.798C82.8367 119.133 81.7595 119.133 81.095 119.798C80.4306 120.462 80.4306 121.539 81.095 122.204L83.1572 124.266H79.9657C79.026 124.266 78.2643 125.028 78.2643 125.967C78.2643 126.907 79.026 127.669 79.9657 127.669H83.4324L81.2326 129.868C80.5682 130.533 80.5682 131.61 81.2326 132.275C81.8971 132.939 82.9744 132.939 83.6388 132.275L85.7009 130.212V132.773C85.7009 133.713 86.4626 134.474 87.4023 134.474Z" fill="white"/>
<path fill-rule="evenodd" clip-rule="evenodd" d="M110.088 152.622C111.027 152.622 111.789 151.861 111.789 150.921V148.361L113.851 150.423C114.516 151.087 115.593 151.087 116.257 150.423C116.922 149.758 116.922 148.681 116.257 148.017L114.058 145.817H116.893C117.833 145.817 118.595 145.055 118.595 144.116C118.595 143.176 117.833 142.414 116.893 142.414H114.333L116.395 140.352C117.059 139.688 117.059 138.61 116.395 137.946C115.73 137.281 114.653 137.281 113.989 137.946L111.789 140.146V136.679C111.789 135.739 111.027 134.977 110.088 134.977C109.148 134.977 108.386 135.739 108.386 136.679V140.146L106.186 137.946C105.522 137.281 104.445 137.281 103.78 137.946C103.116 138.61 103.116 139.688 103.78 140.352L105.842 142.414H102.651C101.711 142.414 100.95 143.176 100.95 144.116C100.95 145.055 101.711 145.817 102.651 145.817H106.118L103.918 148.017C103.254 148.681 103.254 149.758 103.918 150.423C104.582 151.087 105.66 151.087 106.324 150.423L108.386 148.361V150.921C108.386 151.861 109.148 152.622 110.088 152.622Z" fill="white"/>
<defs>
<linearGradient id="paint0_linear" x1="88.4726" y1="0" x2="88.4726" y2="108.889" gradientUnits="userSpaceOnUse">
<stop stop-color="#EBEBEB"/>
<stop offset="0.03125" stop-color="#EBEBEB"/>
<stop offset="1" stop-color="white"/>
</linearGradient>
</defs>
</svg>
