<svg id="tornado" width="172" height="160" viewBox="0 0 172 160" fill="none" xmlns="http://www.w3.org/2000/svg">
<path fill-rule="evenodd" clip-rule="evenodd" d="M161.099 0.0901316C134.981 0.0876277 108.865 0.0876277 82.7468 0.0901316H82.7339C57.1207 0.0901316 31.5099 0.0901316 5.89919 0.0926351C5.71086 0.0926351 5.52253 0.0910545 5.33429 0.0894747C4.81177 0.0850893 4.28996 0.0807099 3.77086 0.110162C1.12673 0.262901 -0.641032 3.12237 0.365541 5.58121C1.27947 7.8122 3.09981 8.18278 5.26319 8.18278C40.7744 8.16564 76.2857 8.16375 111.797 8.16186C128.187 8.16098 144.577 8.16011 160.966 8.15774C161.542 8.15774 162.143 8.12769 162.692 7.96744C164.575 7.41658 165.771 5.51861 165.491 3.63317C165.156 1.37965 163.568 0.0901316 161.099 0.0901316ZM32.1001 29.8742C54.4651 29.8767 76.83 29.8767 99.195 29.8767C114.509 29.8792 129.82 29.8792 145.134 29.8767C147.092 29.8767 149.05 29.8772 151.007 29.8778H151.008H151.008H151.009H151.009H151.009H151.01C156.229 29.8793 161.447 29.8808 166.665 29.8717C168.809 29.8667 170.484 28.5546 170.869 26.6516C171.265 24.6936 170.319 22.7831 168.448 22.0895C167.654 21.794 166.741 21.7114 165.882 21.7114C126.533 21.6939 87.1862 21.6939 47.8397 21.6939C46.3933 21.6939 44.9468 21.6915 43.5003 21.6891C39.6059 21.6827 35.7116 21.6763 31.8172 21.7164C28.6247 21.749 26.6341 24.5809 27.7558 27.3427C28.4294 29.0003 29.9192 29.8742 32.1001 29.8742ZM97.0491 43.4228C100.972 43.4228 104.894 43.4231 108.816 43.4234C124.502 43.4246 140.188 43.4258 155.874 43.4078C157.714 43.4053 159.199 43.9887 159.985 45.6789C161.227 48.3505 159.449 51.4654 156.479 51.503C155.365 51.518 154.251 51.518 153.137 51.518L134.076 51.5181H134.034H134.034H134.033H134.033H134.033C102.27 51.5185 70.5071 51.5188 38.743 51.5105L38.6364 51.5105C37.9232 51.511 37.1868 51.5114 36.5095 51.3302C34.6766 50.8419 33.4948 48.9365 33.7026 46.9784C33.9029 45.0779 35.538 43.5305 37.476 43.4354C37.9582 43.4118 38.4417 43.4158 38.9256 43.4198H38.9258C39.1102 43.4213 39.2947 43.4228 39.4791 43.4228H97.0491ZM67.0222 73.2169H100.815C104.376 73.2152 107.936 73.2158 111.494 73.2163C113.273 73.2166 115.052 73.2169 116.83 73.2169C118.503 73.2169 120.176 73.218 121.849 73.2191H121.849H121.85H121.85H121.851C126.311 73.2221 130.77 73.2251 135.229 73.2069C137.57 73.1968 139.283 71.5668 139.36 69.3909C139.448 67.0072 137.883 65.2845 135.449 65.0942C135.133 65.0695 134.816 65.0722 134.498 65.0749C134.398 65.0758 134.298 65.0767 134.197 65.0767H39.9549C39.7152 65.0767 39.4753 65.0748 39.2354 65.0729C38.5155 65.0673 37.7953 65.0616 37.0779 65.1067C35.3352 65.2194 34.0757 66.0958 33.4623 67.7358C32.4382 70.4751 34.4087 73.2019 37.431 73.2069C44.825 73.2219 52.2204 73.22 59.6151 73.2181H59.6249H59.6251H59.6253H59.6255C62.0912 73.2175 64.5568 73.2169 67.0222 73.2169ZM75.5781 94.8933C72.801 94.8933 70.0241 94.8937 67.2472 94.8941H67.247H67.2468H67.2467C56.1353 94.8957 45.025 94.8973 33.913 94.8732C32.8513 94.8707 31.707 94.7806 30.748 94.3774C29.0379 93.6613 28.2541 91.7108 28.6723 89.8754C29.0704 88.1302 30.5978 86.8081 32.4257 86.7705C34.9696 86.718 37.5136 86.7079 40.0576 86.7605C40.8531 86.7763 41.6486 86.8416 42.4439 86.9069L42.4441 86.9069C43.411 86.9863 44.3776 87.0656 45.3433 87.056C47.6365 87.0325 49.9297 86.9736 52.2229 86.9146C55.0653 86.8416 57.9076 86.7686 60.7499 86.763C75.1384 86.7349 89.5269 86.7405 103.916 86.7461H103.917H103.918H103.918C108.714 86.748 113.511 86.7499 118.307 86.7505C120.969 86.7505 122.774 88.3505 122.824 90.7217C122.867 92.795 121.445 94.6429 119.364 94.758C116.707 94.9056 114.04 94.9014 111.375 94.8971H111.374H111.374C110.829 94.8962 110.284 94.8953 109.739 94.8958C101.464 94.9049 93.1871 94.9034 84.9111 94.9019H84.8935H84.8932H84.893H84.8927C81.7886 94.9013 78.6845 94.9008 75.5806 94.9008C75.5781 94.8983 75.5781 94.8958 75.5781 94.8933ZM41.1568 116.542C52.3818 116.54 63.6044 116.54 74.8294 116.542C78.4175 116.545 82.0056 116.545 85.5937 116.545C88.0361 116.544 90.4785 116.545 92.9209 116.546H92.9277C98.16 116.548 103.392 116.55 108.625 116.535C111.672 116.525 113.655 113.59 112.453 110.901C111.614 109.025 110.069 108.439 108.084 108.442C92.0312 108.462 75.9786 108.461 59.926 108.46C53.9066 108.459 47.8873 108.459 41.8679 108.459C41.7509 108.459 41.6307 108.452 41.5101 108.445H41.5101C41.1996 108.426 40.8875 108.407 40.626 108.512C40.4608 108.578 40.2914 108.643 40.1208 108.707L40.1208 108.707C39.3633 108.995 38.5821 109.291 38.0344 109.814C36.82 110.978 36.6022 112.536 37.2908 114.086C38.0194 115.723 39.3415 116.542 41.1568 116.542ZM88.656 130.088C91.7527 130.089 94.8491 130.089 97.9454 130.089C103.106 130.089 108.266 130.089 113.427 130.093C115.36 130.096 116.96 131.182 117.511 132.815C118.077 134.495 117.586 136.431 116.094 137.36C115.258 137.88 114.158 138.231 113.179 138.233C96.7486 138.284 80.318 138.276 63.8873 138.261C61.2006 138.258 59.4353 136.516 59.4779 134.039C59.5205 131.691 61.3458 130.091 64.0125 130.091C70.1721 130.087 76.3331 130.087 82.4944 130.088C84.5482 130.088 86.6021 130.088 88.656 130.088ZM98.8384 151.8C98.0048 151.802 97.1713 151.805 96.338 151.805C95.5534 151.805 94.7686 151.803 93.9838 151.8C92.1011 151.794 90.2183 151.788 88.338 151.827C87.6169 151.845 86.8256 152.003 86.1972 152.338C84.5245 153.229 83.8059 155.095 84.2867 156.928C84.7399 158.663 86.2673 159.852 88.1652 159.86C93.5411 159.88 98.9195 159.875 104.295 159.867C106.867 159.865 108.58 158.255 108.595 155.861C108.61 153.48 106.917 151.84 104.34 151.81C102.507 151.789 100.673 151.794 98.8384 151.8Z" fill="white"/>
</svg>
